<?xml version="1.0" encoding="UTF-8" standalone="no"?>
<!-- Created with Inkscape (http://www.inkscape.org/) -->

<svg
   width="41.660187mm"
   height="6.0895762mm"
   viewBox="0 0 41.660187 6.0895762"
   version="1.1"
   id="svg79920"
   xml:space="preserve"
   inkscape:version="1.2.2 (732a01da63, 2022-12-09)"
   sodipodi:docname="Control-room event invitation.svg"
   inkscape:export-filename="Control-room event invitation.png"
   inkscape:export-xdpi="106.66666"
   inkscape:export-ydpi="106.66666"
   xmlns:inkscape="http://www.inkscape.org/namespaces/inkscape"
   xmlns:sodipodi="http://sodipodi.sourceforge.net/DTD/sodipodi-0.dtd"
   xmlns="http://www.w3.org/2000/svg"
   xmlns:svg="http://www.w3.org/2000/svg"><sodipodi:namedview
     id="namedview79922"
     pagecolor="#000000"
     bordercolor="#000000"
     borderopacity="0.25"
     inkscape:showpageshadow="2"
     inkscape:pageopacity="0"
     inkscape:pagecheckerboard="0"
     inkscape:deskcolor="#d1d1d1"
     inkscape:document-units="mm"
     showgrid="false"
     inkscape:zoom="0.72515432"
     inkscape:cx="401.9834"
     inkscape:cy="290.28304"
     inkscape:window-width="1920"
     inkscape:window-height="1001"
     inkscape:window-x="-9"
     inkscape:window-y="-9"
     inkscape:window-maximized="1"
     inkscape:current-layer="layer2" /><defs
     id="defs79917"><style
       id="style484">.cls-1{fill:#292728;}</style></defs><g
     inkscape:groupmode="layer"
     id="layer2"
     inkscape:label="Layer 2"
     style="display:inline"
     transform="translate(-4.1225204,-3.8876443)"><path
       style="fill:#ffffff;fill-opacity:1;stroke:none;stroke-width:1"
       d="M 5.6677627,9.957061 C 5.1869291,9.8988911 4.7849912,9.7361187 4.5110489,9.4886246 4.3861421,9.3757847 4.2485175,9.1565773 4.1833097,8.9666266 4.128706,8.8075741 4.1261737,8.781954 4.1245604,8.3724303 l -0.00204,-0.4279771 0.7852611,-0.00548 0.785261,-0.00548 0.00996,0.3111642 c 0.00929,0.2893466 0.013887,0.3177676 0.065172,0.4053295 0.097914,0.1670804 0.3359489,0.245458 0.5308015,0.174778 C 6.539879,8.7373715 6.6472942,8.4126159 6.5233524,8.1463815 6.4273071,7.9400676 6.3052646,7.8481338 5.7186444,7.5402015 4.9362935,7.129525 4.8804901,7.0944005 4.6527427,6.8692615 4.4315099,6.6505636 4.3505821,6.5150991 4.2847974,6.2533917 4.2543174,6.1321686 4.248395,6.0182698 4.2497735,5.5853307 4.2513051,5.1186419 4.2562575,5.0459233 4.2965912,4.8981918 4.3561216,4.6805191 4.4154172,4.5842829 4.5892401,4.423349 4.9878696,4.054278 5.7748103,3.8641547 6.5662643,3.9457079 c 0.8355505,0.086097 1.3546399,0.4317261 1.4685136,0.9778078 0.012662,0.060848 0.023077,0.2933642 0.023077,0.5167041 V 5.8462921 H 7.3187223 6.5795898 L 6.572391,5.5592343 C 6.5637116,5.2136967 6.5410941,5.1592686 6.3689101,5.0693179 6.0932626,4.9253175 5.7947015,5.0456793 5.7176386,5.3318636 5.6735776,5.4954534 5.7518456,5.7136045 5.9039291,5.850979 6.024195,5.9596287 6.3343457,6.1365215 6.7804821,6.3509058 6.9950471,6.4540155 7.2676364,6.5961121 7.3862276,6.6666776 7.7686215,6.8942117 8.0117877,7.2071474 8.1114374,7.599953 8.1636774,7.8058856 8.1774824,8.5350955 8.1335444,8.7692821 8.021427,9.3672217 7.5440805,9.7565158 6.7236066,9.9191386 6.4672427,9.9699486 5.9327346,9.9891266 5.6674309,9.9570266 Z M 25.166805,9.9556825 C 24.385337,9.8676335 23.863593,9.5204948 23.66972,8.9596091 23.625813,8.8325483 23.621933,8.7856188 23.621933,8.3828783 V 7.9444624 l 0.788104,-0.00548 0.788105,-0.00548 2.25e-4,0.2768713 c 0,0.1522781 0.01052,0.314448 0.02318,0.3603769 0.05932,0.2147263 0.354855,0.3424666 0.577292,0.2495271 C 26.018723,8.728396 26.12066,8.4772805 26.04446,8.215179 26.014236,8.1111932 25.986308,8.0705184 25.859293,7.9455096 25.720377,7.8087804 25.664961,7.7748011 25.081067,7.4683218 24.579592,7.2050991 24.414872,7.1078132 24.266868,6.9874264 c -0.305336,-0.24836 -0.45066,-0.4934075 -0.509593,-0.859282 -0.02696,-0.1674552 -0.02594,-0.8653642 0.002,-1.0631463 0.04227,-0.3042706 0.164572,-0.5432211 0.368686,-0.7205979 0.297024,-0.2581223 0.88319,-0.4184278 1.53001,-0.4184278 0.918454,0 1.544141,0.2655167 1.783616,0.7568947 0.09471,0.1943308 0.115834,0.3386825 0.116023,0.7928744 l 2.3e-4,0.3705654 H 26.807813 26.05775 L 26.05105,5.5315975 26.04435,5.2168907 25.95827,5.1366457 C 25.86362,5.0484157 25.761809,5.01152 25.612519,5.0113423 c -0.121083,-2.119e-4 -0.197656,0.027769 -0.275393,0.1003762 -0.140473,0.1312096 -0.176605,0.3497568 -0.08865,0.5362526 0.100477,0.2130471 0.280406,0.3372044 0.997176,0.6880936 0.611928,0.2995603 0.790688,0.408302 0.979343,0.595752 0.183309,0.1821423 0.31011,0.4051936 0.375348,0.6602802 0.03518,0.1375685 0.0411,0.2316537 0.0411,0.654005 0,0.5405908 -0.01384,0.6362321 -0.123248,0.8530078 -0.138195,0.2736965 -0.342661,0.46042 -0.68128,0.622132 -0.442568,0.2113536 -1.07985,0.3008383 -1.669416,0.2344101 z M 31.189797,9.93887 C 30.222739,9.8579361 29.635817,9.4577841 29.456649,8.7572412 29.416672,8.6007787 29.415294,8.5204738 29.415294,6.3440251 v -2.251373 h 0.800327 0.800328 l 0.01338,2.2102586 c 0.0091,1.5107266 0.02052,2.2292793 0.0361,2.2703645 0.115329,0.3051999 0.603066,0.3521222 0.766703,0.073761 l 0.05711,-0.097161 0.0056,-2.2286109 0.0056,-2.2286115 h 0.793567 0.793563 l -0.0066,2.3016808 c -0.0062,2.1450115 -0.0092,2.310206 -0.04421,2.4269424 -0.08275,0.2757578 -0.27017,0.5460787 -0.49104,0.7082093 -0.410505,0.3013391 -1.106833,0.4636842 -1.755847,0.4093685 z M 43.622001,9.9164618 C 43.055547,9.866642 42.587406,9.6934334 42.301752,9.4279883 42.166108,9.3019348 42.066126,9.1478913 41.985791,8.9411572 L 41.9311,8.8004136 41.920583,7.0780674 c -0.0057,-0.9472901 -0.0036,-1.7945695 0.0051,-1.8828451 0.03125,-0.3208427 0.157552,-0.5799565 0.40031,-0.82135 0.130808,-0.1300699 0.208632,-0.1874331 0.347155,-0.2558988 0.340544,-0.168314 0.812418,-0.2496256 1.314148,-0.2264496 0.952003,0.043974 1.548415,0.4004001 1.702572,1.0174967 0.02119,0.084837 0.03763,0.2725168 0.04498,0.5145516 l 0.01164,0.3810032 H 44.992151 44.237804 L 44.23736,5.5279563 C 44.236921,5.2114415 44.20826,5.1151339 44.08979,5.0307788 43.934551,4.9202395 43.60988,4.9714938 43.501321,5.1236818 l -0.04636,0.065025 -0.0057,1.6243261 c -0.0036,1.1125296 10e-4,1.6506503 0.01675,1.707872 0.0861,0.3197634 0.543131,0.3932483 0.726231,0.1167691 l 0.05601,-0.084612 0.0065,-0.5391674 0.0065,-0.5391653 H 44.061643 43.862032 V 7.057198 6.6396602 h 0.96034 0.960334 l -3.01e-4,0.8298573 c -4.44e-4,1.1526064 -0.02634,1.4330521 -0.157454,1.70889 -0.08762,0.1842826 -0.281024,0.3730309 -0.490157,0.4783467 -0.403097,0.2029989 -0.997482,0.3050391 -1.512819,0.2597153 z M 15.631427,9.7764171 c -0.0096,-0.019891 0.110285,-5.6016359 0.121027,-5.6367675 0.0063,-0.020488 0.272395,-0.026099 1.239153,-0.026099 0.677136,0 1.235431,0.00705 1.240659,0.015659 0.0052,0.00861 0.1159,0.7085101 0.245933,1.5553294 l 0.236432,1.5396729 h 0.05635 c 0.04462,0 0.05888,-0.011947 0.06845,-0.057413 0.0067,-0.031583 0.11515,-0.7056403 0.241103,-1.4979198 0.125958,-0.7922791 0.23442,-1.4710403 0.241042,-1.5083576 l 0.012,-0.06785 h 1.23079 1.23079 l 0.0015,0.078289 c 4.39e-4,0.04306 0.03676,1.3183773 0.08033,2.8340415 0.04355,1.5156641 0.07537,2.7627988 0.07069,2.7714108 -0.0046,0.00861 -0.335254,0.015659 -0.734619,0.015659 H 20.486974 L 20.47319,9.2876449 C 20.46559,9.0102094 20.45941,8.4206975 20.45935,7.9776187 20.459334,7.5345369 20.45315,6.7985815 20.44551,6.3421605 L 20.43167,5.5123032 h -0.04712 c -0.03467,0 -0.05029,0.015225 -0.05896,0.057414 -0.0065,0.031578 -0.171755,0.945203 -0.367226,2.0302806 -0.195475,1.0850776 -0.365372,2.0221903 -0.377543,2.0824718 L 19.558711,9.792074 H 18.78774 c -0.424029,0 -0.771307,-0.00235 -0.771726,-0.00523 -4.44e-4,-0.00291 -0.176565,-0.96347 -0.391446,-2.1346646 l -0.390675,-2.1294458 -0.05398,-0.0063 -0.05398,-0.0063 -0.01389,1.2066974 c -0.0077,0.6636831 -0.01389,1.6271066 -0.01389,2.1409403 l -2e-5,0.9342419 H 16.36867 c -0.401202,0 -0.732847,-0.00705 -0.736993,-0.015659 z M 35.511321,6.9423762 V 4.0926766 h 0.903847 0.903853 l 0.758651,1.7327845 c 0.473241,1.0808895 0.769388,1.7327844 0.78718,1.7327844 0.02185,0 0.02854,-0.040911 0.02854,-0.1746275 0,-0.187063 -0.07559,-2.7481246 -0.09112,-3.0873911 l -0.0093,-0.2035503 h 0.749593 0.749604 V 6.9425922 9.7925169 L 39.411302,9.7870999 38.530476,9.781683 37.747048,8.0541179 C 37.129182,6.6916437 36.95565,6.3265524 36.925915,6.3265524 c -0.03518,0 -0.03691,0.020586 -0.02589,0.3079344 0.01787,0.4652337 0.07263,2.6747443 0.07263,2.9320022 V 9.7921207 H 36.241963 35.511275 Z M 9.5934857,9.6824713 c 0.00822,-0.048799 0.228161,-1.3194209 0.4887163,-2.8236026 l 0.473747,-2.7348768 1.251575,-0.00536 1.25158,-0.00536 0.485985,2.8133258 c 0.267289,1.5473281 0.48551,2.8204836 0.484933,2.829233 -4.44e-4,0.00875 -0.355626,0.013448 -0.789003,0.010436 l -0.787947,-0.00548 -0.274938,-2.077253 C 12.026924,6.5410393 11.896998,5.5569531 11.889422,5.4966716 11.876045,5.3901825 11.873748,5.3870682 11.808902,5.3870682 h -0.06674 l -0.279196,2.1137503 c -0.153554,1.1625836 -0.283791,2.1490178 -0.289412,2.1920763 l -0.01026,0.078289 h -0.79241 -0.7924086 z"
       id="path302"
       inkscape:label="Samsung"
       inkscape:export-filename="..\WebDevelopment\MyProjects\custom-countdown\Samsung_logo.svg"
       inkscape:export-xdpi="106.66666"
       inkscape:export-ydpi="106.66666" /></g></svg>
