<?xml version="1.0" encoding="UTF-8" standalone="no"?>
<!-- Created with Inkscape (http://www.inkscape.org/) -->

<svg
   width="164.28702mm"
   height="39.666626mm"
   viewBox="0 0 164.28702 39.666626"
   version="1.1"
   id="svg79920"
   xml:space="preserve"
   inkscape:version="1.2.2 (732a01da63, 2022-12-09)"
   sodipodi:docname="Control-room event invitation.svg"
   inkscape:export-filename="Control-room event invitation.png"
   inkscape:export-xdpi="106.66666"
   inkscape:export-ydpi="106.66666"
   xmlns:inkscape="http://www.inkscape.org/namespaces/inkscape"
   xmlns:sodipodi="http://sodipodi.sourceforge.net/DTD/sodipodi-0.dtd"
   xmlns="http://www.w3.org/2000/svg"
   xmlns:svg="http://www.w3.org/2000/svg"><sodipodi:namedview
     id="namedview79922"
     pagecolor="#000000"
     bordercolor="#000000"
     borderopacity="0.25"
     inkscape:showpageshadow="2"
     inkscape:pageopacity="0"
     inkscape:pagecheckerboard="0"
     inkscape:deskcolor="#d1d1d1"
     inkscape:document-units="mm"
     showgrid="false"
     inkscape:zoom="0.72515432"
     inkscape:cx="401.9834"
     inkscape:cy="290.28304"
     inkscape:window-width="1920"
     inkscape:window-height="1001"
     inkscape:window-x="-9"
     inkscape:window-y="-9"
     inkscape:window-maximized="1"
     inkscape:current-layer="layer2" /><defs
     id="defs79917"><style
       id="style484">.cls-1{fill:#292728;}</style></defs><g
     inkscape:groupmode="layer"
     id="layer2"
     inkscape:label="Layer 2"
     style="display:inline"
     transform="translate(-22.519161,-2.1917293)"><path
       id="path3249"
       d="m 174.06132,12.09401 h 3.64902 v 5.049863 h 3.27864 c 2.02753,1.6e-5 3.50398,0.396615 4.42929,1.18984 0.92531,0.793242 1.38792,2.097663 1.38792,3.913277 v 8.832016 h -3.70142 V 22.67064 c -4e-5,-0.458337 -0.0405,-0.846209 -0.11915,-1.163614 -0.0794,-0.317371 -0.2117,-0.573059 -0.39683,-0.767003 -0.18471,-0.193938 -0.43628,-0.330548 -0.75367,-0.409925 -0.31736,-0.07932 -0.71419,-0.119003 -1.19022,-0.119046 h -2.93491 v 10.867937 h -3.64902 z m -7.43924,18.984996 c -1.16361,0 -2.16407,-0.119007 -3.00142,-0.357055 -0.83735,-0.238048 -1.58204,-0.6742 -2.23403,-1.308458 -0.63479,-0.617047 -1.13727,-1.37947 -1.50738,-2.287284 -0.37018,-0.907811 -0.55516,-1.890538 -0.55516,-2.948179 0,-1.110884 0.18085,-2.128978 0.54228,-3.054288 0.36132,-0.925283 0.86824,-1.696456 1.52026,-2.313507 0.65199,-0.617031 1.39668,-1.049013 2.23403,-1.295954 0.83735,-0.246913 1.83781,-0.370388 3.00142,-0.370388 h 4.99741 v 3.014747 h -3.91369 c -0.79293,8e-6 -1.47584,0.05729 -2.04882,0.171862 -0.57294,0.114615 -1.04442,0.321721 -1.41453,0.621349 -0.37018,0.299645 -0.64342,0.709448 -0.81988,1.229381 -0.17661,0.51995 -0.26453,1.185546 -0.26453,1.996783 0,0.845686 0.13227,1.54625 0.39683,2.101692 0.26415,0.55545 0.67879,1.009355 1.24309,1.36172 0.37018,0.229187 0.7932,0.361366 1.26931,0.396615 0.47607,0.03505 1.0224,0.05285 1.63891,0.05285 h 3.9137 v 2.988114 z m -14.23451,0 c -2.32723,0 -4.07693,-0.581673 -5.24918,-1.745017 -1.17217,-1.163344 -1.7583,-2.899755 -1.7583,-5.209233 0,-2.29172 0.58613,-4.028128 1.7583,-5.209234 1.17225,-1.181086 2.92195,-1.771633 5.24918,-1.771649 h 5.36702 v 2.909037 h -4.86508 c -0.58153,8e-6 -1.0883,0.031 -1.52026,0.09238 -0.43199,0.0616 -0.78467,0.189384 -1.05791,0.383322 -0.27302,0.193938 -0.48043,0.462792 -0.62137,0.806536 -0.14114,0.343759 -0.22019,0.788935 -0.23793,1.335498 h 8.3027 v 2.908227 h -8.3027 c 0.0154,0.582079 0.0925,1.040561 0.2252,1.375438 0.13226,0.334897 0.33509,0.594857 0.60807,0.779911 0.27301,0.185073 0.62106,0.304079 1.04415,0.357093 0.42313,0.05297 0.93433,0.07949 1.5336,0.07949 h 4.89172 V 31.07903 Z M 134.3233,15.425083 h -6.13437 v -3.305249 h 16.42052 v 3.305249 h -6.16102 v 15.653923 h -4.12513 z m -20.37618,1.71879 h 6.92766 c 2.0625,1.6e-5 3.54775,0.387873 4.45555,1.163614 0.9078,0.775754 1.3617,2.088921 1.3617,3.939503 v 8.832016 h -3.67481 v -8.381737 c -4e-5,-0.476087 -0.0309,-0.877274 -0.0925,-1.203561 -0.0621,-0.326275 -0.17661,-0.581931 -0.34357,-0.767 -0.16736,-0.185034 -0.40968,-0.317252 -0.72707,-0.396615 -0.31736,-0.07932 -0.74052,-0.119006 -1.26931,-0.119045 h -2.96151 v 10.867937 h -3.67562 z M 98.415885,33.300525 h 6.583885 c 0.72298,0 1.26954,-0.171866 1.63968,-0.51564 0.37019,-0.34377 0.55516,-0.833033 0.5552,-1.46783 v -0.238048 h -2.98812 c -0.52882,0 -1.02684,-0.0089 -1.49408,-0.02661 -0.4672,-0.01774 -0.91223,-0.07505 -1.33509,-0.171858 -0.42282,-0.09685 -0.83261,-0.250939 -1.22936,-0.462377 -0.396829,-0.211422 -0.789071,-0.502458 -1.176954,-0.873117 -0.651987,-0.616503 -1.158754,-1.391978 -1.520263,-2.326422 -0.361315,-0.93444 -0.542281,-1.956836 -0.542281,-3.0672 0,-1.110884 0.18085,-2.128977 0.542281,-3.054284 0.361316,-0.925291 0.868276,-1.696456 1.520263,-2.313515 0.669763,-0.652535 1.418884,-1.088956 2.247364,-1.309263 0.82844,-0.220283 1.82451,-0.330425 2.98812,-0.330467 h 6.68954 v 13.432409 c 0,1.886638 -0.41422,3.283865 -1.2427,4.191676 -0.82844,0.907808 -2.16797,1.361719 -4.01854,1.361723 h -7.218945 z m 8.778765,-5.103924 v -8.064613 h -1.90359 c -0.61705,1.2e-5 -1.15918,0.01774 -1.62642,0.05286 -0.46721,0.03505 -0.89477,0.16747 -1.28262,0.396615 -0.59931,0.352381 -1.02224,0.815024 -1.26892,1.387946 -0.2464,0.572938 -0.3698,1.300264 -0.3698,2.181981 0,0.792964 0.0883,1.45385 0.26415,1.982663 0.17622,0.528821 0.44935,0.94319 0.81945,1.243098 0.37019,0.299927 0.84167,0.51147 1.41457,0.63466 0.57294,0.123194 1.25616,0.184792 2.04966,0.184792 z M 90.810409,17.143873 h 3.860444 v 13.935133 h -3.860444 z m 0,-5.049863 h 3.860444 v 3.463408 H 90.810409 Z M 70.90309,27.694679 h 9.995633 c 1.057609,4e-6 1.837657,-0.149824 2.340105,-0.44947 0.502448,-0.299644 0.75371,-0.863963 0.75371,-1.692971 0,-0.845669 -0.229051,-1.422769 -0.687501,-1.731298 -0.458373,-0.30851 -1.172521,-0.462776 -2.142442,-0.462785 h -4.706084 c -2.186325,9e-6 -3.786215,-0.427538 -4.799749,-1.282639 -1.013495,-0.85508 -1.520262,-2.243163 -1.520262,-4.164241 0,-2.062537 0.546446,-3.547714 1.639299,-4.455548 1.092893,-0.907795 2.767707,-1.3617 5.024482,-1.361717 h 10.44425 v 3.384327 h -9.862482 c -1.058149,1.6e-5 -1.834071,0.193938 -2.327612,0.581809 -0.493579,0.387873 -0.740368,1.022412 -0.740368,1.903582 0,1.375046 0.83731,2.062561 2.512009,2.062549 h 5.2887 c 1.057648,1.2e-5 1.969844,0.09254 2.736742,0.277611 0.766899,0.185073 1.392665,0.489152 1.877375,0.912255 0.484672,0.423119 0.846064,0.978428 1.084139,1.665935 0.23792,0.687523 0.357073,1.524866 0.357073,2.512019 -3.8e-5,2.0093 -0.542165,3.459109 -1.62642,4.349436 -1.084254,0.890331 -2.754519,1.335494 -5.010715,1.335494 H 70.90309 Z m -5.196193,-0.700636 c 0.05977,3.233395 -0.695985,5.869398 -1.160914,6.389885 -0.175837,0.268384 -1.324219,1.672273 -3.529399,1.857235 1.78934,-0.763502 2.7384,-1.712739 3.101566,-1.993721 0.391586,-0.4123 0.666409,-1.074731 0.666409,-1.074731 0.375969,-1.145126 0.388732,-1.44576 0.56457,-2.292747 0.245633,-1.779964 0.216712,-1.121108 0.357845,-2.885921 z m -42.092005,6.355744 c -0.116068,3.23339 1.355145,5.869396 2.260477,6.389883 0.342035,0.268383 2.578488,1.672265 6.872473,1.857261 C 29.263636,40.833399 27.415529,39.884196 26.708515,39.603184 25.945974,39.19091 25.410865,38.52845 25.410865,38.52845 24.679134,37.383358 24.653992,37.082691 24.311571,36.235736 23.833378,34.45577 23.889908,35.114594 23.614892,33.349787 Z M 65.159217,15.860993 C 65.238267,12.627581 64.238923,9.9915978 63.62407,9.4710878 63.391548,9.2027041 61.873021,7.798832 58.957009,7.6138513 c 2.366134,0.7635345 3.621174,1.7127231 4.101296,1.9937335 0.517872,0.4122862 0.881231,1.0747232 0.881231,1.0747232 0.496934,1.145115 0.514017,1.445764 0.746539,2.292743 0.324682,1.779965 0.286507,1.121108 0.473142,2.885942 z M 23.755138,9.7594502 c -0.116068,-2.8631635 1.355183,-5.1973008 2.260477,-5.6582158 0.342035,-0.2376467 2.578488,-1.480769 6.872434,-1.6445632 -3.484206,0.6760981 -5.332236,1.5166113 -6.039288,1.7654331 -0.76258,0.3650711 -1.29765,0.9516579 -1.29765,0.9516579 -0.73177,1.013992 -0.756873,1.2802093 -1.099332,2.0302163 -0.478194,1.5761417 -0.421625,0.9927211 -0.696641,2.5554717 z m 1.465043,30.9593378 c 3.353138,2.520042 16.671792,0.301469 24.055389,-1.293779 -0.05514,-5.786722 -0.109898,-11.535197 -0.164269,-17.245801 -7.318622,0.07646 -16.03334,0.16747 -26.585676,0.277693 -0.04396,7.525959 0.06401,16.305933 2.694711,18.261876 0,0 0,0 0,0 m 0.15887,-37.3817002 c 3.29279,-2.43799832 16.311133,-0.4454814 23.562389,1.0138917 0.05321,5.5932145 0.107199,11.2231295 0.161184,16.8901035 -7.315074,-0.0052 -16.024702,-0.0113 -26.569519,-0.01893 0.04357,-7.450363 0.249874,-15.9827604 2.846101,-17.8849886 0,0 0,0 0,0 M 65.014883,33.560344 c -1.374232,2.323277 -8.833524,4.372834 -15.006849,5.706585 -0.05707,-5.735879 -0.113755,-11.434179 -0.170053,-17.09526 6.129828,-0.06401 11.419608,-0.119288 16.03091,-0.167469 0.08792,4.568635 0.131878,9.903347 -0.853892,11.556129 0,0 0,0 0,0 M 64.574094,9.8696294 C 63.137895,7.6286332 55.746586,5.7205315 49.662066,4.4959732 c 0.05514,5.5457018 0.11067,11.1274748 0.166968,16.7456828 6.127477,0.0044 11.41556,0.0081 16.025705,0.0113 -0.08753,-4.540661 -0.246018,-9.782083 -1.280336,-11.3834916 0,0 0,0 0,0"
       style="font-style:normal;font-variant:normal;font-weight:normal;font-stretch:normal;font-size:64px;line-height:125%;font-family:'HandelGothic TL';-inkscape-font-specification:'HandelGothic TL';letter-spacing:0px;word-spacing:0px;fill:#ffffff;fill-opacity:1;stroke:none;stroke-width:0.311574;enable-background:new"
       inkscape:export-filename="..\WebDevelopment\MyProjects\custom-countdown\signtech_logo.svg"
       inkscape:export-xdpi="90"
       inkscape:export-ydpi="90" /></g></svg>
